<svg width="2649" height="1370" viewBox="0 0 2649 1370" fill="none" xmlns="http://www.w3.org/2000/svg">
<mask id="mask0_225_5" style="mask-type:luminance" maskUnits="userSpaceOnUse" x="-6547" y="-549" width="9196" height="3433">
<path d="M2598.43 1132.97L2574.77 1140.17L2604.16 1134.49L2626.94 1128.47L2598.43 1132.97ZM2418.83 1177.37C2410.55 1180.24 2402.26 1183.1 2394 1185.99C2404.14 1183.65 2414.27 1181.29 2424.41 1178.96L2448.11 1171.66L2418.83 1177.37ZM2502.81 1148.21L2464.66 1161.46C2479.84 1158.51 2495.04 1155.59 2510.22 1152.65C2523.14 1148.7 2536.1 1144.77 2549.04 1140.83L2502.81 1148.21ZM2244.83 1227.58L2219.95 1237.47L2249.42 1229.5C2257.81 1226.53 2266.23 1223.59 2274.64 1220.64L2244.83 1227.58ZM2325.9 1195.5C2313.1 1200.53 2300.3 1205.57 2287.52 1210.61C2302.81 1207.07 2318.12 1203.55 2333.41 1200C2346.17 1195.53 2358.88 1191.04 2371.65 1186.57L2325.9 1195.5ZM2407.58 1163.41L2361.32 1181.59C2379.94 1177.96 2398.55 1174.31 2417.2 1170.69C2432.82 1165.23 2448.51 1159.81 2464.17 1154.38C2445.31 1157.39 2426.45 1160.38 2407.58 1163.41ZM1997.7 1318.98L1997.13 1319.24L1999 1318.58L1997.7 1318.98ZM2075.88 1283.77C2067.25 1287.62 2058.63 1291.48 2050.04 1295.34L2080.9 1285.67L2106.11 1275.54L2075.88 1283.77ZM2154.42 1248.66L2116.51 1265.61L2161.33 1253.41C2174.22 1248.27 2187.16 1243.15 2200.08 1238.02L2154.42 1248.66ZM2233.21 1213.65C2217.91 1220.4 2202.61 1227.15 2187.37 1233.93L2242.97 1220.98C2258.29 1214.89 2273.57 1208.79 2288.91 1202.72C2270.33 1206.36 2251.77 1210.01 2233.21 1213.65ZM2312.17 1178.79L2261.79 1201.03C2282.58 1196.95 2303.38 1192.9 2324.16 1188.83C2341.39 1182.05 2358.65 1175.28 2375.91 1168.52C2354.66 1171.93 2333.42 1175.36 2312.17 1178.79ZM1836.8 1384.14L1834.6 1385.26L1839.77 1383.14L1840.56 1382.8L1836.8 1384.14ZM1912.47 1345.88L1886.83 1358.85L1916.76 1348.07C1925.4 1344.15 1934.08 1340.25 1942.76 1336.33L1912.47 1345.88ZM1988.21 1307.77C1975.56 1314.09 1962.9 1320.41 1950.31 1326.75C1965.41 1321.98 1980.5 1317.21 1995.6 1312.45C2008.18 1306.78 2020.71 1301.1 2033.29 1295.43L1988.21 1307.77ZM2064.22 1269.76L2019.63 1292.06C2037.69 1287.12 2055.73 1282.16 2073.81 1277.23C2089.01 1270.4 2104.27 1263.61 2119.5 1256.8L2064.22 1269.76ZM2140.66 1231.85C2124.03 1240.06 2107.37 1248.24 2090.81 1256.47C2111.35 1251.67 2131.9 1246.87 2152.45 1242.08C2169.22 1234.6 2185.95 1227.11 2202.75 1219.64L2140.66 1231.85ZM2217.03 1194.14C2199.4 1202.82 2181.84 1211.53 2164.22 1220.22L2231.35 1207.02C2249.4 1199.02 2267.5 1191.05 2285.59 1183.07C2262.74 1186.75 2239.88 1190.44 2217.03 1194.14ZM1681.92 1455.03L1678.31 1457.1L1683.06 1454.91L1686.5 1453.15L1681.92 1455.03ZM1754.6 1413.85C1745.91 1418.74 1737.23 1423.62 1728.58 1428.52L1759.34 1415.97L1785.22 1402.76C1775 1406.45 1764.81 1410.16 1754.6 1413.85ZM1827.42 1372.8L1790.71 1393.49C1805.27 1388.23 1819.87 1382.98 1834.44 1377.72C1847.07 1371.32 1859.74 1364.93 1872.39 1358.53C1857.37 1363.28 1842.41 1368.04 1827.42 1372.8ZM1900.88 1331.71C1886.18 1339.9 1871.46 1348.07 1856.84 1356.26C1874.62 1350.64 1892.44 1345.03 1910.23 1339.4C1925.03 1331.92 1939.78 1324.43 1954.6 1316.98L1900.88 1331.71ZM1974.07 1290.92C1958.01 1299.83 1942.05 1308.78 1926.02 1317.7C1946 1312.21 1966.02 1306.75 1986.02 1301.27C2002.51 1293 2019.04 1284.74 2035.57 1276.49L1974.07 1290.92ZM2048.14 1250.13C2030.84 1259.63 2013.51 1269.13 1996.28 1278.66L2062.11 1263.21C2079.75 1254.42 2097.42 1245.64 2115.12 1236.88C2092.78 1241.28 2070.48 1245.71 2048.14 1250.13ZM2122.02 1209.56C2103.97 1219.42 2086.02 1229.32 2068.03 1239.19L2138.68 1225.24C2157.15 1216.11 2175.64 1206.98 2194.14 1197.86L2122.02 1209.56ZM1532.63 1531.81L1527.8 1534.86L1534.95 1531.16L1538.77 1528.97L1532.63 1531.81ZM1602.19 1487.75C1593.6 1493.18 1585.06 1498.61 1576.49 1504.04L1606.64 1490.1C1615.36 1485.12 1624.12 1480.15 1632.86 1475.17L1602.19 1487.75ZM1672.52 1443.59C1660.31 1451.25 1648.07 1458.89 1635.88 1466.55L1679.23 1448.76C1691.49 1441.79 1703.67 1434.81 1715.95 1427.85L1672.52 1443.59ZM1742.48 1399.75C1728.29 1408.6 1714.2 1417.48 1700.04 1426.34L1752.06 1407.5C1766.62 1399.26 1781.23 1391.05 1795.81 1382.82L1742.48 1399.75ZM1813.49 1355.77C1797.74 1365.51 1781.99 1375.24 1766.3 1384.99L1825.01 1366.37C1841.09 1357.33 1857.19 1348.31 1873.32 1339.3L1813.49 1355.77ZM1884.29 1312.07C1867.53 1322.36 1850.85 1332.67 1834.16 1342.97L1898.52 1325.26L1949.98 1296.57C1928.08 1301.72 1906.19 1306.9 1884.29 1312.07ZM1955.75 1268.42C1938.18 1279.13 1920.61 1289.85 1903.08 1300.58L1971.82 1284.4C1989.87 1274.4 2007.99 1264.45 2026.13 1254.49L1955.75 1268.42ZM2027.35 1224.97C2009.09 1235.98 1990.87 1247.01 1972.71 1258.05C1997.14 1253.21 2021.58 1248.38 2046.03 1243.55C2064.62 1233.31 2083.18 1223.06 2101.83 1212.84L2027.35 1224.97ZM1388.42 1614.76L1382.38 1619.04L1390.09 1614.59L1395.95 1610.84L1388.42 1614.76ZM1455.75 1567.43L1430.11 1585.44C1439.95 1580.34 1449.84 1575.24 1459.68 1570.13C1468.34 1564.61 1476.92 1559.09 1485.61 1553.57L1455.75 1567.43ZM1522.65 1520.51C1510.81 1528.76 1499.05 1537.03 1487.26 1545.3L1529.62 1525.7L1566.08 1502.61L1522.65 1520.51ZM1590.34 1473.45C1576.47 1483.09 1562.58 1492.72 1548.75 1502.37L1599.29 1481.57C1613.56 1472.57 1627.87 1463.57 1642.21 1454.59L1590.34 1473.45ZM1658.02 1426.63C1642.76 1437.13 1627.53 1447.64 1612.33 1458.17L1669.79 1437.3L1716.58 1407.97L1658.02 1426.63ZM1726.17 1379.86C1709.97 1390.96 1693.77 1402.07 1677.6 1413.19L1739.88 1393.38C1756.61 1382.95 1773.47 1372.56 1790.3 1362.16L1726.17 1379.86ZM1794.68 1333.21C1777.59 1344.78 1760.51 1356.35 1743.53 1367.94C1765.99 1361.74 1788.49 1355.55 1810.96 1349.36C1828.36 1338.59 1845.68 1327.81 1863.12 1317.06L1794.68 1333.21ZM1863.27 1286.8C1845.72 1298.66 1828.21 1310.52 1810.7 1322.38L1881.88 1305.59C1900.02 1294.45 1918.26 1283.34 1936.48 1272.24L1863.27 1286.8ZM1932.62 1240.45C1914.36 1252.59 1896.07 1264.7 1877.94 1276.88L1953.45 1261.87C1972.04 1250.55 1990.59 1239.22 2009.25 1227.93L1932.62 1240.45ZM1250.82 1703.14L1244.52 1708.09L1252.43 1703.01L1258.42 1698.73L1250.82 1703.14ZM1314.69 1653.12C1306.14 1659.77 1297.59 1666.42 1289.09 1673.07L1319.16 1655.61L1344.67 1637.52L1314.69 1653.12ZM1379.03 1603.05L1344.39 1630.01L1385.25 1608.75C1397.2 1600.32 1409.2 1591.9 1421.2 1583.47L1379.03 1603.05ZM1443.63 1553.09C1430.04 1563.52 1416.46 1573.97 1402.96 1584.43L1452.7 1561.33C1466.47 1551.66 1480.22 1541.98 1494.01 1532.31L1443.63 1553.09ZM1508.34 1503.3L1464.29 1537.19L1519.71 1514.35C1534.93 1503.71 1550.24 1493.1 1565.54 1482.48C1546.48 1489.42 1527.38 1496.35 1508.34 1503.3ZM1573.66 1453.51C1557.84 1465.5 1542.01 1477.47 1526.29 1489.48L1587.53 1467.2C1603.6 1456.04 1619.63 1444.87 1635.76 1433.72L1573.66 1453.51ZM1638.89 1403.98C1622.54 1416.34 1606.29 1428.74 1589.99 1441.11L1655.34 1420.29C1672.24 1408.64 1689.23 1397.01 1706.2 1385.38L1638.89 1403.98ZM1705.07 1354.43C1687.96 1367.19 1670.85 1379.94 1653.85 1392.73L1723.56 1373.46C1741.05 1361.49 1758.58 1349.53 1776.16 1337.59L1705.07 1354.43ZM1771.07 1305.15C1753.61 1318.12 1736.26 1331.13 1718.86 1344.11L1792.17 1326.75C1810.15 1314.56 1828.16 1302.38 1846.21 1290.2L1771.07 1305.15ZM1837.93 1255.97C1819.97 1269.15 1802 1282.33 1784.13 1295.55L1860.87 1280.27C1879.32 1267.86 1897.88 1255.47 1916.46 1243.1L1837.93 1255.97ZM1118.71 1797.5L1111.21 1804.02L1120.08 1797.65L1127.28 1791.94L1118.71 1797.5ZM1179.48 1744.63L1154.85 1766.06L1183.17 1747.75C1191.77 1740.96 1200.45 1734.17 1209.09 1727.38L1179.48 1744.63ZM1240.95 1691.57C1229.65 1701.27 1218.36 1710.98 1207.13 1720.69C1220.49 1712.91 1233.94 1705.12 1247.34 1697.33C1258.85 1688.29 1270.3 1679.26 1281.82 1670.23L1240.95 1691.57ZM1302.23 1638.79C1289.29 1649.89 1276.44 1661 1263.54 1672.11L1311.33 1647.2C1324.79 1636.7 1338.31 1626.19 1351.82 1615.7L1302.23 1638.79ZM1364.44 1585.82C1350.15 1597.96 1335.83 1610.1 1321.63 1622.24L1375.8 1597.03C1390.45 1585.67 1405.08 1574.3 1419.78 1562.94L1364.44 1585.82ZM1426.4 1533.18C1411.32 1545.93 1396.34 1558.7 1381.31 1571.46L1440.51 1546.99C1456.08 1534.97 1471.71 1522.96 1487.35 1510.95L1426.4 1533.18ZM1489.2 1480.49C1473.37 1493.75 1457.53 1507.02 1441.77 1520.29C1462.97 1512.57 1484.13 1504.83 1505.33 1497.1C1521.66 1484.6 1538.03 1472.13 1554.44 1459.64L1489.2 1480.49ZM1552.04 1428.03C1535.67 1441.62 1519.36 1455.24 1503.06 1468.86L1570.8 1447.22C1587.64 1434.42 1604.49 1421.62 1621.37 1408.83L1552.04 1428.03ZM1615.46 1375.65C1598.61 1389.53 1581.78 1403.41 1565.01 1417.32L1636.11 1397.64C1653.51 1384.51 1671.06 1371.42 1688.59 1358.33L1615.46 1375.65ZM1679.16 1323.51C1661.87 1337.58 1644.61 1351.66 1627.43 1365.77L1702.39 1348.01C1720.11 1334.76 1737.76 1321.49 1755.54 1308.25L1679.16 1323.51ZM1743.22 1271.54C1725.64 1285.75 1708.12 1299.98 1690.62 1314.21L1768.51 1298.65C1786.67 1285.2 1804.98 1271.79 1823.27 1258.38L1743.22 1271.54ZM991.985 1898.04C989.421 1900.53 986.869 1903.02 984.3 1905.51L993.092 1898.51L1001.15 1891.43L991.985 1898.04ZM1050.37 1841.84C1042.35 1849.57 1034.28 1857.29 1026.28 1865.03L1053.95 1845.14C1062.18 1837.92 1070.35 1830.72 1078.59 1823.52L1050.37 1841.84ZM1108.47 1786.01C1097.63 1796.37 1086.89 1806.71 1076.1 1817.07L1115.01 1791.82C1126.18 1782.1 1137.36 1772.38 1148.54 1762.66L1108.47 1786.01ZM1167.26 1730.03C1154.72 1741.96 1142.18 1753.88 1129.69 1765.81L1175.88 1738.89C1188.83 1727.65 1201.82 1716.42 1214.85 1705.18L1167.26 1730.03ZM1226.09 1674.25C1212.38 1687.18 1198.72 1700.11 1185.07 1713.06L1237.46 1685.72L1279.85 1649.21L1226.09 1674.25ZM1285.34 1618.54C1270.86 1632.14 1256.37 1645.74 1241.93 1659.36L1298.87 1632.84C1313.93 1619.93 1329.12 1607.05 1344.29 1594.15L1285.34 1618.54ZM1344.98 1562.91C1329.74 1577.04 1314.52 1591.18 1299.37 1605.34L1361.19 1579.79C1376.82 1566.48 1392.42 1553.16 1408.1 1539.87L1344.98 1562.91ZM1404.81 1507.46C1389.16 1521.93 1373.56 1536.41 1357.95 1550.88L1423.29 1527.04C1439.56 1513.3 1455.95 1499.6 1472.33 1485.88L1404.81 1507.46ZM1465.34 1452.06C1449.06 1466.86 1432.79 1481.64 1416.68 1496.47L1486.19 1474.25C1502.84 1460.31 1519.44 1446.35 1536.15 1432.43L1465.34 1452.06ZM1525.82 1396.94C1509.33 1411.89 1492.97 1426.87 1476.56 1441.84L1549.12 1421.73C1566.22 1407.52 1583.44 1393.35 1600.64 1379.17L1525.82 1396.94ZM1587.28 1341.88C1570.3 1357.03 1553.26 1372.18 1536.41 1387.38L1612.62 1369.28C1630.04 1354.95 1647.46 1340.63 1664.98 1326.34L1587.28 1341.88ZM1648.6 1287.12C1631.44 1302.33 1614.45 1317.59 1597.37 1332.84L1676.44 1317.05C1694.18 1302.59 1711.98 1288.15 1729.81 1273.73L1648.6 1287.12ZM871.923 2003.84L864.314 2012L872.67 2004.65L880.552 1996.94L871.923 2003.84ZM926.928 1944.93C918.989 1953.39 911.012 1961.85 903.117 1970.28L930.559 1948.36L954.715 1924.9L926.928 1944.93ZM982.119 1886.13L951.027 1919.26L987.904 1892.68C998.805 1882.14 1009.79 1871.59 1020.75 1861.05L982.119 1886.13ZM1037.79 1827.25C1025.69 1839.98 1013.57 1852.71 1001.55 1865.44C1016.49 1855.74 1031.51 1846 1046.49 1836.29C1058.91 1824.33 1071.3 1812.38 1083.74 1800.43L1037.79 1827.25ZM1093.49 1768.58C1080.47 1782.27 1067.5 1795.95 1054.5 1809.65L1104.66 1780.4C1118.3 1767.34 1132.03 1754.3 1145.76 1741.26L1093.49 1768.58ZM1149.93 1709.77C1135.94 1724.28 1121.9 1738.79 1108.02 1753.31L1163.58 1724.28C1177.96 1710.62 1192.25 1696.95 1206.69 1683.29L1149.93 1709.77ZM1206.18 1651.31C1191.73 1666.24 1177.43 1681.19 1163.04 1696.14L1222.55 1668.39C1237.6 1654.17 1252.73 1639.97 1267.88 1625.77L1206.18 1651.31ZM1263.45 1592.69C1248.36 1608.09 1233.26 1623.5 1218.28 1638.91L1281.91 1612.57C1297.47 1597.99 1313.04 1583.42 1328.69 1568.86L1263.45 1592.69ZM1320.56 1534.42C1305.15 1550.06 1289.86 1565.72 1274.53 1581.37L1341.67 1556.83C1357.65 1541.97 1373.68 1527.13 1389.75 1512.28L1320.56 1534.42ZM1378.53 1476.15C1362.68 1492.04 1346.81 1507.94 1331.07 1523.86L1401.61 1501.29C1418 1486.19 1434.49 1471.11 1451.01 1456.03L1378.53 1476.15ZM1436.61 1418.13C1420.44 1434.18 1404.37 1450.24 1388.3 1466.32L1462.23 1445.81C1478.9 1430.59 1495.58 1415.35 1512.33 1400.14L1436.61 1418.13ZM1495.3 1360.3C1478.83 1376.47 1462.41 1392.64 1446.05 1408.84L1522.79 1390.61C1539.85 1375.2 1557.08 1359.84 1574.29 1344.48L1495.3 1360.3ZM1554.41 1302.65C1537.61 1318.92 1520.88 1335.19 1504.22 1351.5L1584.39 1335.44C1601.61 1320.02 1618.79 1304.57 1636.11 1289.18L1554.41 1302.65ZM757.656 2115.45L749.686 2124.96L758.408 2116.39L766.606 2107.52L757.656 2115.45ZM809.255 2053.98C801.79 2062.84 794.42 2071.67 786.974 2080.52L812.621 2057.81C820.529 2049.28 828.48 2040.75 836.413 2032.23L809.255 2053.98ZM861.748 1991.99C851.758 2003.76 841.741 2015.54 831.813 2027.31L867.641 1998.66C877.961 1987.57 888.216 1976.49 898.575 1965.39L861.748 1991.99ZM913.98 1930.42C902.562 1943.81 891.256 1957.18 879.901 1970.58L922.772 1939.63C934.69 1926.88 946.701 1914.12 958.676 1901.37L913.98 1930.42ZM967.075 1868.52C954.576 1883.07 942.071 1897.62 929.636 1912.17L978.116 1880.66C991.1 1866.87 1004.1 1853.09 1017.16 1839.29L967.075 1868.52ZM1020.11 1806.93C1006.88 1822.23 993.728 1837.52 980.56 1852.81L1033.87 1821.69C1047.63 1807.17 1061.41 1792.65 1075.22 1778.13L1024.84 1804.47L1020.11 1806.93ZM1073.75 1745.3C1059.92 1761.15 1046.11 1777.01 1032.34 1792.88L1089.68 1762.9C1104.08 1747.8 1118.6 1732.7 1133.12 1717.61L1094.36 1735.69L1073.75 1745.3ZM1127.63 1683.83C1113.28 1700.1 1099 1716.37 1084.76 1732.65L1091.78 1729.38L1146.24 1703.98C1161.07 1688.54 1175.9 1673.11 1190.77 1657.68L1158.99 1670.85L1127.63 1683.83ZM1181.91 1622.49C1167.21 1639.05 1152.56 1655.61 1137.94 1672.18L1156.67 1664.42L1202.61 1645.41C1217.93 1629.59 1233.44 1613.81 1248.92 1598L1216.2 1609.96L1181.91 1622.49ZM1236.7 1561.26C1221.55 1578.07 1206.43 1594.88 1191.42 1611.72L1214.13 1603.44L1260 1586.68C1275.59 1570.73 1291.07 1554.78 1306.74 1538.85L1262.41 1553.03L1236.7 1561.26ZM1291.69 1500.25C1276.31 1517.19 1261.08 1534.17 1245.81 1551.14L1260.57 1546.42L1317.23 1528.29C1333.23 1512.09 1349.36 1495.93 1365.49 1479.76L1292.44 1500.04L1291.69 1500.25ZM1347.5 1439.32C1331.72 1456.46 1315.88 1473.58 1300.25 1490.76L1375.27 1469.94C1391.51 1453.66 1407.7 1437.37 1424.04 1421.12L1347.5 1439.32ZM1403.28 1378.73C1387.37 1395.9 1371.64 1413.11 1355.81 1430.3L1433.47 1411.83C1450 1395.43 1466.66 1379.06 1483.32 1362.69L1403.28 1378.73ZM1460.16 1318.24C1443.83 1335.52 1427.45 1352.78 1411.3 1370.11L1492.23 1353.9C1509.03 1337.44 1525.85 1321 1542.75 1304.58L1460.16 1318.24ZM648.944 2233.28L640.886 2243.92L649.489 2234.55L657.946 2224.42L648.944 2233.28ZM697.972 2168.43L676.626 2196.65L701.004 2172.73C708.538 2163.71 716.023 2154.72 723.583 2145.7L697.972 2168.43ZM747.064 2103.79C737.546 2116.26 728.042 2128.73 718.581 2141.18L753.07 2110.57L782.733 2075.22L747.064 2103.79ZM796.522 2039.09C785.665 2053.26 774.839 2067.43 764.021 2081.61L804.775 2048.96C816.206 2035.39 827.732 2021.81 839.238 2008.23L803.252 2034.22L796.522 2039.09ZM846.333 1974.39C834.415 1989.78 822.491 2005.17 810.674 2020.55L857.411 1986.82C869.746 1972.25 882.067 1957.69 894.439 1943.13L878.082 1953.76L846.333 1974.39ZM896.309 1909.83C883.817 1925.93 871.375 1942.04 858.92 1958.14L874.704 1947.88L909.805 1925.07C922.961 1909.64 936.262 1894.22 949.511 1878.79L896.309 1909.83ZM946.929 1845.19C933.717 1861.97 920.473 1878.75 907.393 1895.51L949.177 1871.13L962.983 1863.07C976.619 1847.18 990.19 1831.3 1003.9 1815.41L946.929 1845.19ZM997.498 1780.85C983.989 1797.96 970.606 1815.07 957.154 1832.18L1016.13 1801.35C1030.32 1784.97 1044.59 1768.6 1058.88 1752.24L997.498 1780.85ZM1049 1716.39C1034.94 1733.9 1020.85 1751.41 1006.95 1768.93L1069.89 1739.59C1084.42 1722.93 1098.94 1706.29 1113.56 1689.66L1049 1716.39ZM1100.36 1652.29C1086.09 1669.95 1072.01 1687.65 1057.83 1705.34L1123.87 1678.01C1138.77 1661.09 1153.75 1644.2 1168.74 1627.3L1100.36 1652.29ZM1152.72 1588.12C1138.04 1606.05 1123.36 1623.96 1108.83 1641.91L1178.26 1616.54C1193.45 1599.44 1208.73 1582.36 1224.05 1565.31L1152.72 1588.12ZM1205.09 1524.28C1190.19 1542.3 1175.45 1560.33 1160.68 1578.38L1233.17 1555.19C1248.64 1537.97 1264.14 1520.76 1279.69 1503.58L1205.09 1524.28ZM1258.28 1460.54C1243.06 1478.69 1227.88 1496.84 1212.81 1515.02L1288.25 1494.09C1304.02 1476.73 1319.92 1459.41 1335.85 1442.1L1298.54 1450.97L1258.28 1460.54ZM1311.71 1397.1C1296.27 1415.29 1280.93 1433.5 1265.63 1451.74L1297.15 1444.25L1344.16 1433.07C1360.13 1415.7 1376.05 1398.32 1392.11 1380.97L1311.71 1397.1ZM1365.81 1333.84C1350.11 1352.08 1334.49 1370.35 1318.95 1388.64L1400.02 1372.38C1416.28 1354.89 1432.79 1337.47 1449.24 1320.04L1365.81 1333.84ZM546.604 2356.45L539.177 2367.46L546.674 2358.42L555.106 2347.18L546.604 2356.45ZM592.539 2288.74C585.718 2298.77 578.865 2308.81 572.083 2318.83L595.696 2293.09L617.011 2264.67L592.539 2288.74ZM638.403 2221.32C629.518 2234.36 620.687 2247.38 611.822 2260.41L644.202 2228.56C653.65 2216.01 663.181 2203.44 672.692 2190.88L654.908 2206.67L638.403 2221.32ZM684.975 2153.52C674.654 2168.51 664.31 2183.5 654.066 2198.46L693.305 2163.62C704.061 2149.42 714.752 2135.24 725.565 2121.02L684.975 2153.52ZM731.369 2086.12C720.241 2102.21 709.239 2118.27 698.148 2134.36L724.787 2113.04L742.514 2098.83C754.269 2083.4 766.097 2067.96 777.913 2052.52L731.369 2086.12ZM778.598 2018.41C766.711 2035.41 754.832 2052.41 743.04 2069.39L792.075 2033.99C804.499 2017.78 816.934 2001.58 829.446 1985.36L778.598 2018.41ZM825.788 1951C813.429 1968.54 801.182 1986.09 788.905 2003.64L842.039 1969.11C854.987 1952.33 867.99 1935.54 881.006 1918.77L825.788 1951ZM873.636 1883.49C860.822 1901.54 848.014 1919.57 835.287 1937.61L892.089 1904.45C905.517 1887.19 919.044 1869.94 932.591 1852.69L873.636 1883.49ZM921.71 1816.19C908.505 1834.57 895.381 1852.94 882.275 1871.32L942.823 1839.68C956.573 1822.14 970.346 1804.61 984.171 1787.08L921.71 1816.19ZM970.284 1748.96C956.775 1767.59 943.303 1786.22 929.896 1804.86C951.052 1795.01 972.3 1785.09 993.501 1775.21C1007.65 1757.35 1021.96 1739.51 1036.25 1721.66L970.284 1748.96ZM1019.31 1681.87C1005.44 1700.72 991.619 1719.56 977.888 1738.43L1045.1 1710.61C1059.47 1692.64 1073.77 1674.67 1088.23 1656.72L1019.31 1681.87ZM1068.66 1615.01C1054.59 1633.97 1040.62 1652.94 1026.66 1671.91L1096.58 1646.37C1111.29 1628.18 1126.21 1610.02 1141.08 1591.85L1068.66 1615.01ZM1118.74 1548.25C1104.31 1567.35 1089.88 1586.45 1075.61 1605.59L1149.05 1582.1C1163.95 1563.87 1178.78 1545.63 1193.79 1527.42L1118.74 1548.25ZM1168.97 1481.77C1154.42 1500.91 1140 1520.08 1125.54 1539.24L1201.51 1518.16C1216.72 1499.79 1232.08 1481.45 1247.45 1463.12L1168.97 1481.77ZM1220.19 1415.45C1205.24 1434.68 1190.21 1453.89 1175.47 1473.18L1254.79 1454.32C1270.19 1435.94 1285.58 1417.56 1301.11 1399.22L1268.48 1405.76L1220.19 1415.45ZM1271.35 1349.48C1256.31 1368.67 1241.53 1387.93 1226.61 1407.15L1267.29 1398.99L1308.34 1390.76C1323.99 1372.33 1339.77 1353.93 1355.57 1335.53L1271.35 1349.48ZM450.438 2485.19L443.345 2496.91L450.791 2486.91L458.433 2475.51L450.438 2485.19ZM493.029 2414.86C486.593 2425.4 480.228 2435.91 473.849 2446.44L496.155 2419.46L516.554 2389.21L511.861 2394.33L493.029 2414.86ZM536.066 2344.29C527.684 2358.02 519.303 2371.75 510.942 2385.48L541.623 2352.03C550.534 2338.85 559.471 2325.66 568.433 2312.45L536.066 2344.29ZM579.269 2273.81C569.587 2289.51 559.949 2305.19 550.363 2320.86L578.127 2293.55L587.703 2284.13L618.258 2239.2L579.269 2273.81ZM622.76 2203.35C612.326 2220.24 601.905 2237.12 591.485 2254.01L633.617 2216.61C644.72 2200.36 655.93 2184.09 667.128 2167.82L622.76 2203.35ZM666.666 2132.84C655.506 2150.67 644.34 2168.51 633.275 2186.33L680.307 2148.65C692.003 2131.66 703.65 2114.67 715.385 2097.67C699.154 2109.39 682.86 2121.16 666.666 2132.84ZM710.78 2062.43C699.21 2080.85 687.691 2099.26 676.183 2117.67L726.808 2081.11C739.067 2063.42 751.477 2045.7 763.855 2027.99L710.78 2062.43ZM755.539 1991.93C743.426 2010.91 731.275 2029.87 719.307 2048.85L774.158 2013.21C786.764 1995.16 799.269 1977.13 811.963 1959.07L755.539 1991.93ZM800.312 1921.75C787.989 1940.98 775.77 1960.22 763.511 1979.45L821.45 1945.69C834.466 1927.2 847.616 1908.71 860.772 1890.21L800.312 1921.75ZM845.967 1851.43C833.164 1871.03 820.325 1890.63 807.682 1910.24L869.393 1878.06C882.699 1859.34 895.987 1840.62 909.397 1821.92L845.967 1851.43ZM891.515 1781.5C878.567 1801.21 865.829 1820.93 852.99 1840.65C874.514 1830.63 896.032 1820.63 917.586 1810.59C931.19 1791.65 944.888 1772.71 958.631 1753.77L891.515 1781.5ZM938.163 1711.46C924.824 1731.4 911.467 1751.34 898.299 1771.31L966.244 1743.25C980.094 1724.14 994.027 1705.06 1008.02 1685.99L938.163 1711.46ZM984.734 1641.81C971.244 1661.8 957.93 1681.83 944.561 1701.84L1015.38 1676.02C1029.48 1656.83 1043.64 1637.63 1057.86 1618.46L984.734 1641.81ZM1032.28 1572.2C1018.47 1592.32 1004.67 1612.45 991.03 1632.6L1064.8 1609.04C1079.18 1589.73 1093.67 1570.45 1108.19 1551.17L1032.28 1572.2ZM1080 1502.92C1066 1523.07 1052.14 1543.24 1038.28 1563.42L1114.99 1542.17C1129.56 1522.83 1144.13 1503.51 1158.8 1484.19L1080 1502.92ZM1128.52 1433.83C1114.26 1454.02 1100.03 1474.22 1085.94 1494.46L1165.31 1475.6C1180.13 1456.18 1195.18 1436.82 1210.2 1417.45L1128.52 1433.83ZM1177.46 1365.03C1162.97 1385.21 1148.57 1405.43 1134.24 1425.67L1216.64 1409.15C1231.64 1389.79 1246.56 1370.41 1261.66 1351.08L1181.94 1364.28L1177.46 1365.03ZM360.332 2619.53L353.517 2632.15L360.571 2621.6L368.024 2609.2L360.332 2619.53ZM399.722 2546.49L382.057 2579.26L402.557 2551.71C408.986 2541.04 415.461 2530.33 421.934 2519.64L399.722 2546.49ZM439.695 2472.99C431.819 2487.41 423.924 2501.84 416.131 2516.23L438.418 2489.28L445.348 2480.9C453.665 2467.15 461.938 2453.43 470.263 2439.67L439.695 2472.99ZM479.533 2399.89C470.616 2416.19 461.806 2432.44 452.92 2448.73L487.985 2410.5C497.56 2394.76 507.198 2378.98 516.834 2363.2L479.533 2399.89ZM520.163 2326.25C510.348 2343.99 500.503 2361.74 490.782 2379.45L531.126 2339.78C541.47 2322.85 551.772 2305.94 562.175 2288.99L520.163 2326.25ZM560.67 2253C550.319 2271.6 540.108 2290.16 529.832 2308.74C544.648 2295.61 559.552 2282.36 574.407 2269.18C585.371 2251.33 596.43 2233.46 607.482 2215.59C591.851 2228.09 576.264 2240.53 560.67 2253ZM601.949 2179.44C591.06 2198.78 580.178 2218.11 569.416 2237.42L617.99 2198.56C629.446 2180.06 640.947 2161.55 652.517 2143.03C635.643 2155.2 618.806 2167.3 601.949 2179.44ZM643.229 2106.24C632.011 2126.01 620.897 2145.76 609.762 2165.52C627.18 2152.97 644.562 2140.48 661.986 2127.91C673.86 2108.92 685.765 2089.92 697.702 2070.92L643.229 2106.24ZM685.184 2032.9C673.595 2053.07 662.03 2073.25 650.555 2093.41L706.234 2057.33C718.436 2037.94 730.764 2018.55 743.118 1999.17C723.803 2010.42 704.478 2021.68 685.184 2032.9ZM727.36 1959.79C715.467 1980.25 703.669 2000.69 691.903 2021.15L751.074 1986.7C763.553 1967.08 776.034 1947.46 788.601 1927.85C768.184 1938.51 747.746 1949.18 727.36 1959.79ZM770.078 1886.74C757.934 1907.41 745.845 1928.09 733.802 1948.77C754.491 1938 775.22 1927.18 795.917 1916.37C808.732 1896.47 821.717 1876.58 834.676 1856.68C813.151 1866.7 791.59 1876.75 770.078 1886.74ZM813.276 1813.8C800.829 1834.67 788.425 1855.54 776.121 1876.42C797.947 1866.28 819.837 1856.07 841.695 1845.9C854.692 1825.92 867.628 1805.93 880.708 1785.96C858.238 1795.24 835.73 1804.55 813.276 1813.8ZM856.861 1741.09C844.224 1762.05 831.675 1783.03 819.157 1804.01C841.85 1794.65 864.617 1785.23 887.348 1775.84C900.649 1755.64 914.184 1735.46 927.667 1715.29C904.064 1723.88 880.45 1732.51 856.861 1741.09ZM901.153 1668.5C888.194 1689.58 875.215 1710.67 862.438 1731.78C886.298 1723.1 910.202 1714.37 934.077 1705.67C947.549 1685.47 960.894 1665.27 974.491 1645.08C950.048 1652.89 925.581 1660.71 901.153 1668.5ZM945.69 1596.18C932.591 1617.28 919.643 1638.41 906.666 1659.53L980.773 1635.88C994.51 1615.54 1008.47 1595.24 1022.4 1574.94L945.69 1596.18ZM991.194 1524C977.729 1545.18 964.226 1566.37 950.97 1587.61L1028.39 1566.16C1042.33 1545.83 1056.2 1525.52 1070.26 1505.23L991.194 1524ZM1036.74 1452.22C1023.2 1473.35 1009.87 1494.53 996.456 1515.7L1076.22 1496.77C1090.4 1476.39 1104.73 1456.05 1119.07 1435.72L1036.74 1452.22ZM1083.51 1380.58C1069.58 1401.77 1055.55 1422.93 1041.85 1444.19L1124.8 1427.57C1139.18 1407.21 1153.59 1386.87 1168.13 1366.57L1083.51 1380.58ZM1032.83 1445.99C1046.58 1424.63 1060.62 1403.35 1074.61 1382.05L989.421 1396.16C976.227 1418.27 963.129 1440.39 950.131 1462.54L1032.83 1445.99ZM987.217 1517.89C1000.7 1496.59 1014.13 1475.29 1027.74 1454.02L945.433 1470.49C932.474 1492.62 919.653 1514.77 906.889 1536.95L987.217 1517.89ZM941.611 1590.2C954.918 1568.83 968.441 1547.52 981.955 1526.2L902.22 1545.1C889.481 1567.24 876.787 1589.39 864.231 1611.58C890.013 1604.45 915.793 1597.34 941.611 1590.2ZM897.01 1662.62C910.077 1641.33 923.132 1620.04 936.324 1598.78C910.669 1605.88 885.042 1612.94 859.4 1620.02C846.927 1642.12 834.617 1664.25 822.302 1686.38C847.21 1678.46 872.102 1670.56 897.01 1662.62ZM852.605 1735.35C865.463 1714.07 878.462 1692.82 891.497 1671.57C866.796 1679.44 842.146 1687.27 817.471 1695.11C805.182 1717.22 792.864 1739.31 780.751 1761.44C804.694 1752.75 828.637 1744.07 852.605 1735.35ZM808.938 1808.21C821.575 1787.02 834.269 1765.84 847.041 1744.66C823.243 1753.31 799.484 1761.93 775.705 1770.55C763.706 1792.54 751.908 1814.55 740.047 1836.55C763.004 1827.11 785.955 1817.68 808.938 1808.21ZM765.631 1881.29C778.048 1860.18 790.521 1839.1 803.064 1818.01C780.346 1827.37 757.656 1836.69 734.951 1846.02C723.108 1867.98 711.223 1889.93 699.539 1911.9C721.562 1901.71 743.564 1891.53 765.631 1881.29ZM722.825 1954.49C735.008 1933.52 747.297 1912.55 759.614 1891.58C737.775 1901.72 715.978 1911.81 694.165 1921.9C682.664 1943.64 671.39 1965.39 659.985 1987.14C680.927 1976.27 701.863 1965.41 722.825 1954.49ZM680.541 2027.76C692.451 2007.01 704.351 1986.27 716.369 1965.52C695.718 1976.27 675.108 1986.94 654.494 1997.65C643.113 2019.32 631.664 2040.99 620.459 2062.66C640.482 2051.04 660.515 2039.41 680.541 2027.76ZM638.523 2101.21C650.195 2080.66 661.999 2060.09 673.814 2039.52C654.097 2050.99 634.398 2062.41 614.725 2073.82C603.736 2095.17 592.91 2116.49 582.004 2137.83C600.818 2125.66 619.691 2113.42 638.523 2101.21ZM597.123 2174.62C608.479 2154.43 619.753 2134.24 631.184 2114.05C612.743 2125.99 594.275 2137.94 575.866 2149.85C565.047 2170.97 554.197 2192.1 543.53 2213.21L597.123 2174.62ZM555.762 2248.32C566.853 2228.42 578.094 2208.47 589.304 2188.55C571.886 2201.09 554.442 2213.67 537.037 2226.18C526.685 2246.79 516.409 2267.37 506.115 2287.97L555.762 2248.32ZM515.161 2321.73C525.828 2302.42 536.439 2283.12 547.156 2263.79L498.943 2302.3C488.851 2322.47 478.77 2342.63 468.787 2362.77C484.232 2349.11 499.673 2335.46 515.161 2321.73ZM474.443 2395.52C484.712 2376.78 495.115 2358 505.505 2339.22C490.644 2352.39 475.833 2365.5 461.01 2378.6C451.442 2398.01 441.905 2417.41 432.394 2436.79C446.396 2423.06 460.408 2409.32 474.443 2395.52ZM434.515 2468.78L463.446 2415.7C450.096 2428.82 436.8 2441.83 423.5 2454.87C414.399 2473.4 405.336 2491.91 396.336 2510.4L434.515 2468.78ZM394.487 2542.39C403.38 2525.96 412.335 2509.51 421.304 2493.04L386.257 2531.17C377.984 2548.22 369.716 2565.27 361.482 2582.31L394.487 2542.39ZM354.988 2615.61C362.75 2601.22 370.523 2586.8 378.306 2572.39L349.273 2607.51C342.042 2622.47 334.835 2637.4 327.66 2652.33L354.988 2615.61ZM315.466 2689.08C321.415 2677.99 327.301 2666.97 333.276 2655.87L312.732 2683.46L296.304 2717.74L308.114 2700.06L315.466 2689.08ZM276.245 2762.27L283.432 2748.85L276.207 2759.67L269.804 2773.01L276.245 2762.27ZM-6134.64 2883.13H-6185C-6304.41 2866.41 -6424.95 2847.45 -6546.58 2826.35V2819.22C-6407.86 2843.3 -6270.49 2864.73 -6134.64 2883.13ZM-6546.58 2109.62C-3986.39 2199.76 -1508.59 1802.61 985.422 1389.87C1408.69 680.514 1931.05 -0.0989619 2648.05 -548.535V-539.487C1935.52 6.45804 1415.52 683.064 993.98 1388.45L1079.71 1374.25C1495.8 738.831 1994.06 127.827 2648.05 -378.398V-369.438C1998.48 134.192 1502.78 741.27 1088.63 1372.77L1173.86 1358.66C1579.54 793.435 2052.36 248.612 2648.05 -214.358V-205.56C2056.75 254.734 1586.72 795.743 1183.18 1357.11L1267.86 1343.09C1660.01 844.206 2106.3 362.219 2648.05 -56.8536V-47.9781C2110.74 368.277 1667.41 846.429 1277.69 1341.47L1362.5 1327.43C1738.13 890.932 2156.69 468.228 2648.05 92.9862V101.547C2161.07 473.93 1745.72 892.978 1372.73 1325.73L1457.02 1311.8C1813.53 933.35 2203.52 565.996 2648.05 233.8V242.403C2208.02 571.621 1821.47 935.285 1467.92 1309.99L1551.45 1296.19C1886.58 971.329 2247.29 655.224 2648.05 364.645V373.104C2251.92 660.636 1894.94 973.105 1563.11 1294.26L1645.8 1280.63C1957.51 1004.88 2288.36 735.924 2648.05 485.149V493.567C2293.21 741.2 1966.41 1006.51 1658.38 1278.54L1740.56 1265.01C2027 1034.04 2327.43 808.236 2648.05 595.043V603.141C2332.42 813.179 2036.39 1035.46 1753.97 1262.81L1835.45 1249.42C2095.12 1058.85 2364.73 872.119 2648.05 693.893V701.911C2370.05 876.9 2105.27 1060.07 1850.12 1247L1930.31 1233.87C2162.01 1079.41 2400.52 927.701 2648.05 781.558V789.487C2406.28 932.306 2173.1 1080.42 1946.47 1231.23L2025.14 1218.37C2227.91 1095.9 2435.14 975.336 2648.05 858.269V866.072C2441.46 979.713 2240.23 1096.65 2043.23 1215.42C2068.81 1211.24 2094.4 1207.09 2120 1202.93C2293.04 1108.53 2468.86 1015.39 2648.05 924.341V932.02C2475.88 1019.54 2306.82 1108.99 2140.35 1199.63C2165.28 1195.58 2190.19 1191.52 2215.13 1187.49C2357.75 1117.47 2501.97 1048.24 2648.05 980.168V987.726C2509.87 1052.13 2373.35 1117.57 2238.28 1183.73C2262.31 1179.84 2286.36 1175.99 2310.39 1172.11C2422.09 1123 2534.62 1074.33 2648.05 1026.24V1033.62C2543.62 1077.9 2439.95 1122.67 2337 1167.83C2359.97 1164.13 2382.94 1160.41 2405.92 1156.72C2486.27 1125.27 2566.98 1094.03 2648.05 1063.03V1070.29C2577.57 1097.25 2507.37 1124.39 2437.44 1151.69C2458.7 1148.28 2479.98 1144.9 2501.25 1141.5C2550.07 1124.6 2599.01 1107.77 2648.05 1091.01V1098.18C2611.94 1110.53 2575.89 1122.91 2539.9 1135.33L2596.91 1126.25C2613.95 1121.08 2631 1115.92 2648.05 1110.77V1117.92L2646.25 1118.46L2648.05 1118.17V1134.85C2604.03 1144.85 2560.03 1154.89 2516.07 1164.97C2457 1180.72 2397.99 1196.53 2339.07 1212.4C2282.37 1229.92 2225.79 1247.5 2169.3 1265.14C2113.14 1285.06 2057.07 1305.04 2001.15 1325.07C1948.04 1346.51 1895.06 1368.01 1842.19 1389.53C1789.89 1413.38 1737.72 1437.27 1685.7 1461.19C1636.29 1486.51 1587.07 1511.87 1537.96 1537.24C1489.64 1564.97 1441.46 1592.72 1393.46 1620.47C1347.32 1649.99 1301.35 1679.53 1255.54 1709.06C1211.49 1740.44 1167.62 1771.82 1123.91 1803.18C1081.45 1836.79 1039.17 1870.37 997.058 1903.92C956.883 1939.22 916.887 1974.48 877.074 2009.68C838.813 2046.97 800.775 2084.2 762.875 2121.36C726.536 2160.69 690.359 2199.93 654.373 2239.08C619.915 2280.49 585.634 2321.79 551.542 2362.97C519.484 2405.81 487.639 2448.52 455.923 2491.09C425.689 2536.11 395.678 2580.97 365.792 2625.66C337.644 2672.52 309.664 2719.2 281.845 2765.68C260.834 2804.96 239.897 2844.12 219.073 2883.13H203.878L234.478 2832.02L250.923 2797.48C231.749 2826.15 212.65 2854.66 193.565 2883.13H185.609C213.871 2840.98 242.19 2798.68 270.65 2756.11C277.831 2741.07 285.1 2725.95 292.344 2710.85C249.221 2768.73 206.331 2826.12 163.542 2883.12H155.294C205.73 2815.95 256.35 2748.1 307.266 2679.71C315.446 2662.68 323.535 2645.71 331.752 2628.65C260.644 2714.51 190.029 2799.36 119.609 2883.12H110.957C188.249 2791.23 265.773 2697.94 343.909 2603.55C352.865 2585.02 361.89 2566.44 370.915 2547.86C266.416 2661.52 162.802 2773.45 59.3957 2883.12H50.2819C160.022 2766.81 269.984 2647.87 380.969 2527.09C390.43 2507.62 399.878 2488.18 409.408 2468.68C265.341 2609.97 122.684 2748.59 -19.9358 2883.12H-29.6229C119.143 2742.91 267.932 2598.14 418.301 2450.61C428.172 2430.44 438.119 2410.24 448.079 2390.05C256.777 2559.23 67.5862 2724.59 -122.06 2883.12H-132.645C63.1009 2719.68 258.338 2548.99 455.866 2374.2C466.103 2353.5 476.379 2332.79 486.731 2312.05C238.968 2509.61 -5.8017 2701.68 -252.01 2883.12H-263.415C-11.0038 2697.39 239.84 2500.4 493.901 2297.72C504.436 2276.62 514.982 2255.51 525.599 2234.39C210.169 2460.98 -101.122 2680.26 -415.66 2883.12H-428.291C-107.331 2676.51 210.189 2452.77 532.079 2221.46C542.917 2199.96 553.887 2178.45 564.871 2156.93C167.541 2413.68 -224.226 2660.75 -622.269 2883.12H-636.265C-231.381 2657.49 166.883 2406.15 571.002 2144.92C582.066 2123.24 593.107 2101.57 604.235 2079.89C106.954 2368.34 -382.976 2644.19 -884.122 2883.12H-900.233C-391.597 2641.43 105.337 2361.54 609.931 2068.75C621.268 2046.82 632.8 2024.88 644.301 2002.94C22.7088 2325.7 -589.252 2632.12 -1220.42 2883.12H-1238.89C-599.337 2629.93 20.2135 2319.44 649.796 1992.42C661.309 1970.43 672.735 1948.44 684.342 1926.45C-95.4823 2287.61 -862.613 2627.84 -1662.22 2883.12H-1685.24C-875.566 2626.39 -99.5555 2282.08 689.57 1916.52C701.348 1894.32 713.38 1872.15 725.348 1849.97C-267.001 2258 -1242.42 2638.57 -2273.65 2883.13H-2304.23C-1259.95 2638.39 -273.494 2253.39 730.44 1840.5C742.376 1818.33 754.188 1796.14 766.257 1773.98C-548.546 2251.16 -1839.17 2690.05 -3235.97 2883.13H-3286.53C-1868.46 2693.5 -561.161 2248.56 771.295 1764.87C783.497 1742.57 795.913 1720.3 808.293 1698.03C-1521.86 2439.05 -3791.34 3087.33 -6546.58 2696.83V2689.71C-3789.4 3080.64 -1518.76 2431 813.138 1689.29C825.51 1667.03 837.826 1644.76 850.338 1622.52C-1524.14 2278.06 -3849.73 2862.11 -6546.58 2560.81V2553.73C-3847.92 2855.35 -1521.03 2270.2 855.169 1614.07C867.782 1591.75 880.596 1569.47 893.404 1547.19C-1522.89 2119.49 -3901.73 2639.93 -6546.58 2418.24V2411.24C-3900.07 2633.18 -1519.87 2111.8 898.065 1539.03C910.874 1516.75 923.687 1494.48 936.679 1472.24C-1518.81 1963.49 -3947.76 2421.43 -6546.58 2270.04V2263.03C-3946.17 2414.59 -1515.75 1955.92 941.383 1464.3C954.425 1442.02 967.619 1419.8 980.856 1397.58C-1511.57 1810.05 -3987.87 2206.56 -6546.58 2116.49V2109.62Z" fill="white"/>
</mask>
<g mask="url(#mask0_225_5)">
<path d="M2648.05 -548.535H-6546.58V3087.32H2648.05V-548.535Z" fill="url(#paint0_linear_225_5)"/>
</g>
<defs>
<linearGradient id="paint0_linear_225_5" x1="-5691.59" y1="1655.45" x2="1499.44" y2="253.975" gradientUnits="userSpaceOnUse">
<stop stop-color="#4C59C8"/>
<stop offset="0.90969" stop-color="#293DE2"/>
<stop offset="0.936901" stop-color="#2536C0"/>
<stop offset="1" stop-color="#5D6BDB"/>
</linearGradient>
</defs>
</svg>
