<svg width="27" height="27" viewBox="0 0 27 27" fill="none" xmlns="http://www.w3.org/2000/svg">
<path d="M27 13.5C27 20.9558 20.9558 27 13.5 27C6.04416 27 0 20.9558 0 13.5C0 6.04416 6.04416 0 13.5 0C20.9558 0 27 6.04416 27 13.5ZM2.03658 13.5C2.03658 19.8311 7.16893 24.9634 13.5 24.9634C19.8311 24.9634 24.9634 19.8311 24.9634 13.5C24.9634 7.16893 19.8311 2.03658 13.5 2.03658C7.16893 2.03658 2.03658 7.16893 2.03658 13.5Z" fill="#F0F431"/>
<rect x="12.3936" y="5.31146" width="1.77049" height="9.73771" rx="0.885246" fill="#F0F431"/>
<rect x="19.9175" y="8.01428" width="1.62049" height="9.99251" rx="0.810244" transform="rotate(52 19.9175 8.01428)" fill="#F0F431"/>
</svg>
