<svg width="21" height="21" viewBox="0 0 21 21" fill="none" xmlns="http://www.w3.org/2000/svg">
<g clip-path="url(#clip0_78_1960)">
<path d="M3.5 11.375H8.75C9.23125 11.375 9.625 10.9812 9.625 10.5V3.5C9.625 3.01875 9.23125 2.625 8.75 2.625H3.5C3.01875 2.625 2.625 3.01875 2.625 3.5V10.5C2.625 10.9812 3.01875 11.375 3.5 11.375ZM3.5 18.375H8.75C9.23125 18.375 9.625 17.9812 9.625 17.5V14C9.625 13.5188 9.23125 13.125 8.75 13.125H3.5C3.01875 13.125 2.625 13.5188 2.625 14V17.5C2.625 17.9812 3.01875 18.375 3.5 18.375ZM12.25 18.375H17.5C17.9812 18.375 18.375 17.9812 18.375 17.5V10.5C18.375 10.0188 17.9812 9.625 17.5 9.625H12.25C11.7688 9.625 11.375 10.0188 11.375 10.5V17.5C11.375 17.9812 11.7688 18.375 12.25 18.375ZM11.375 3.5V7C11.375 7.48125 11.7688 7.875 12.25 7.875H17.5C17.9812 7.875 18.375 7.48125 18.375 7V3.5C18.375 3.01875 17.9812 2.625 17.5 2.625H12.25C11.7688 2.625 11.375 3.01875 11.375 3.5Z" fill="#7380EC"/>
</g>
<defs>
<clipPath id="clip0_78_1960">
<rect width="21" height="21" fill="white"/>
</clipPath>
</defs>
</svg>
